<?xml version="1.0" encoding="UTF-8"?>
<svg id="Isolation_Mode" data-name="Isolation Mode" xmlns="http://www.w3.org/2000/svg" viewBox="0 0 31.11 31">
  <path fill="#0b9396" d="M7.9,0C2.95-.06-.26,4.07,.02,9.6,2.32,4.03,9.31,3.38,12.28,6.43,5.28,5.6-4.41,10.49,2.46,24.48c1.37-10.68,9.65-13.99,13.25-14.49,5.02,.36,11.63,5.86,11.96,14.4,10.64-13.82-6.39-18.89-10.5-17.32,.94-2.23,6.73-4.09,12.77,.99C27.74-6.24,15.58,2.96,15.58,2.96,12.78,.91,10.15,.03,7.9,0Z"/>
  <polygon fill="#0b9396" points="17.13 13.3 15.55 12.24 13.98 13.3 10.7 31 15.55 31 20.41 31 17.13 13.3"/>
</svg>
