<?xml version="1.0" encoding="UTF-8"?>
<svg id="Calque_1" data-name="Calque 1" xmlns="http://www.w3.org/2000/svg" viewBox="0 0 93.39 69.97">
  <defs>
    <style>
      .cls-1 {
        fill: #0e2c38;
      }
    </style>
  </defs>
  <path class="cls-1" d="M85.89,43.18c.13,.41,.23,.84,.4,1.23,1.58,3.77,3.16,7.54,4.77,11.31,.55,1.3,1.17,2.57,1.76,3.85,.18,.39,.43,.75,.53,1.15,.16,.68-.18,1.2-.78,1.37-.72,.21-1.27-.03-1.57-.67-2.27-4.88-4.55-9.76-6.82-14.65-2.09-4.5-4.16-9.01-6.25-13.51-.23-.49-.53-.96-.85-1.4-.51-.7-1.25-.98-2.07-.82-.41,.08-.82,.39-1.13,.7-.95,.97-1.85,1.98-2.75,2.99-2.7,3.04-5.38,6.09-8.08,9.13-5.16,5.82-10.32,11.65-15.49,17.46-1.97,2.21-3.98,4.39-5.97,6.58-.14,.16-.28,.31-.42,.48,.07-.01,.16-.03,.26-.04,.03,.02,.06,.05,.1,.07-.13,.17-.23,.38-.4,.51-1.39,1.1-2.98,1.36-4.54,.6-1.42-.7-2.95-.9-4.42-1.32-5.17-1.47-10.35-2.87-15.54-4.27-4.11-1.11-8.23-2.19-12.35-3.28-.64-.17-1.23-.1-1.85,.15-.37,.15-.8,.17-1.13,.23-.06,.35,0,.81-.2,1.04-.22,.25-.68,.3-1.05,.44-.02-.28-.06-.47-.04-.65,.01-.2,.06-.4,.11-.6,.09-.36,.28-.72,.28-1.08,0-1.04,.46-1.9,.94-2.77,.09-.15,.16-.31,.24-.47,.03-.05,.05-.14,.09-.15,.8-.27,.68-1.22,1.23-1.68,.09-.07,.2-.12,.3-.18,.09-.05,.21-.07,.27-.15,1.84-2.44,3.67-4.88,5.51-7.32,1.53-2.03,3.07-4.05,4.6-6.08,1.38-1.84,2.74-3.69,4.12-5.53,1.38-1.84,2.77-3.66,4.16-5.49,1.33-1.76,2.66-3.52,3.99-5.29,.75-1,1.82-1.38,2.99-1.58,2.82-.48,5.64-.96,8.46-1.41,4.22-.67,8.45-1.32,12.67-1.99,3.64-.58,7.28-1.17,10.92-1.75,1.19-.19,2.38-.37,3.57-.57,.18-.03,.36-.14,.54-.2,.09-.03,.19-.05,.28-.06,.36-.02,.73,0,1.09-.06,.31-.06,.6-.24,.91-.3,1.26-.24,2.52-.43,3.77-.7,.81-.17,1.58-.48,2.08-1.32-.11,.05-.17,.06-.21,.09-1.15,1.06-2.65,1.13-4.07,1.41-.64,.13-1.3,.21-1.95,.31,0-.04-.02-.08-.02-.11,.21-.05,.41-.1,.62-.14,1.14-.22,2.28-.41,3.41-.66,.42-.09,.81-.3,1.16-.44-.36-1.22-.71-2.35-1.02-3.5-.21-.76-.12-1.01,.64-1.26,1.09-.37,2.22-.62,3.34-.91,.04-.01,.1,.03,.26,.09-.67,.18-1.23,.33-1.8,.47,1.88,.12,3.71-.08,5.51-.55,.37-.1,.7-.35,1.07-.47,.56-.19,1.14-.34,1.72-.48,.1-.02,.22,.05,.33,.09,0,0-.01-.01-.01-.01-.08,.14-.12,.32-.24,.4-.38,.26-.62,.58-.71,1.06,.42-.32,.81-.6,1.19-.89,.04,0,.09,.02,.13,.02-.1,.47,.12,.5,.41,.41,.33-.1,.65-.24,.99-.3,1.03-.2,2.06-.48,3.1-.52,1.88-.06,3.33,.81,4.4,2.37,.42,.61,.51,1.27,.58,1.95,.2,2-.29,3.82-1.48,5.44-.08,.11-.14,.22-.17,.39,.14-.11,.27-.22,.41-.33,.03,.02,.06,.04,.08,.06-.08,.11-.14,.23-.23,.33-1.2,1.44-2.68,2.54-4.38,3.27-1.82,.78-3.7,1.4-5.62,2.11-.16-.51-.31-.93-.41-1.36-.02-.09,.17-.29,.3-.33,1.2-.43,2.42-.82,3.62-1.27,1.55-.58,2.97-1.38,4.19-2.5,.26-.24,.47-.54,.71-.81-.04-.04-.07-.07-.11-.11-.38,.31-.75,.62-1.13,.93-.03-.04-.06-.07-.09-.11,.16-.14,.33-.28,.49-.43,1.39-1.27,2.2-2.82,2.12-4.74-.05-1.3-.58-2.34-1.76-3-.63-.35-1.28-.41-1.97-.33-.69,.09-1.37,.18-2.05,.3-.13,.02-.28,.18-.34,.31-.19,.46-.33,.95-.5,1.42-.08,.21-.66,.32-.88,.31-.19,.09-.39,.26-.57,.24-.66-.05-1.32-.11-1.96-.25-1.35-.28-2.65,0-4.04,.19,.26,.82,.49,1.53,.71,2.25,1.26,4.05,2.52,8.1,3.76,12.15,.07,.23,.03,.49,.05,.8,.05,.07,.22,.22,.27,.41,1.23,4.75,3.25,9.22,4.96,13.8,.06,.15,.11,.31,.17,.48-.1-.02-.16-.03-.21-.04-.18-.51-.35-1.02-.54-1.52-.26-.66-.54-1.32-.82-1.98-.04,.17,0,.32,.05,.45,.3,.74,.6,1.48,.91,2.21,.12,.28,.27,.55,.41,.83Zm-21.64-7.33c.16-.28,.32-.56,.49-.84,.05-.14,.06-.31,.14-.41,.33-.39,.7-.74,1.04-1.12,.83-.93,1.64-1.88,2.46-2.81,1.36-1.55,2.74-3.08,4.08-4.64,.56-.66,1-1.4,1.1-2.29,.14-1.22-.09-2.4-.48-3.55-.14-.41-.45-.7-.9-.73-.66-.04-1.33-.09-1.98-.02-2.38,.25-4.76,.54-7.13,.84-3.73,.46-7.47,.92-11.2,1.42-3.49,.47-6.98,.96-10.46,1.5-3.81,.59-7.61,1.24-11.4,1.89-1.08,.18-1.47,.78-1.23,1.84,.16,.72,.36,1.43,.58,2.13,.11,.34,.1,.61-.09,.92-.44,.73-.02,1.84,.75,2.16,.15,.06,.31,.25,.36,.41,.29,.9,.55,1.81,.82,2.72,1.18,4,2.37,8,3.55,12,.08,.26,.11,.56,.53,.4,.05-.02,.23,.12,.26,.22,.03,.12,0,.36-.06,.38-.41,.14-.3,.41-.22,.69,.38,1.29,.76,2.57,1.14,3.86,.08,.28,.18,.46,.52,.43,.09,0,.25,.14,.29,.25,.03,.09-.04,.29-.12,.32-.31,.13-.28,.35-.2,.6,.19,.64,.36,1.28,.56,1.91,.4,1.29,.76,2.6,1.23,3.87,.39,1.04,1.2,1.33,2.14,.73,.74-.47,1.45-1.04,2.04-1.69,2.4-2.62,4.74-5.29,7.12-7.93,.32-.35,.51-.63-.09-1.01,.2-.15,.35-.27,.51-.38,.17,.1,.35,.21,.53,.32,.96-1.07,1.89-2.12,2.82-3.16q.45-.5,.08-1.08c.15-.12,.29-.24,.41-.33,.19,.11,.35,.19,.51,.29,2.62-2.93,5.22-5.84,7.84-8.77,.09,.25,.17,.45,.26,.71,.22-.25,.37-.42,.53-.6,.03-.04,.06-.07,.09-.11,.26-.44,.52-.87,.78-1.31Zm-30.93,27.9c1.7,.16,2.71-.88,2.45-2.56-.07-.46-.17-.92-.3-1.37-1.59-5.43-3.19-10.85-4.79-16.27-1.42-4.8-2.85-9.6-4.28-14.4-.19-.65-.69-1-1.31-.91-.13,.02-.28,.11-.35,.21-2.39,3.36-4.78,6.72-7.15,10.1-3.39,4.83-6.78,9.66-10.15,14.5-.67,.96-1.34,1.93-1.91,2.95-.42,.74-.21,1.21,.58,1.54,.63,.26,1.27,.52,1.92,.7,.4,.11,.84,.06,1.25,.14,.97,.21,1.93,.46,2.89,.68,3.67,.83,7.32,1.73,11.01,2.47,3.48,.69,7,1.21,10.5,1.81,.17,.03,.34,.09,.52,.14,0,.05,0,.1-.01,.16-.28,.04-.57,.09-.85,.13ZM3.14,58.16c.13-.27,.25-.55,.39-.81,.21-.4,.38-.84,.65-1.19,.61-.8,1.33-1.52,1.91-2.34,1.89-2.64,3.75-5.3,5.61-7.96,1.74-2.49,3.47-4.98,5.2-7.47,.33-.48,.66-.96,.99-1.43-.14,.05-.23,.13-.3,.23-.98,1.31-1.95,2.63-2.94,3.94-.97,1.29-1.95,2.57-2.93,3.85-.52,.68-1.05,1.36-1.54,2.06-.48,.68-1.03,1.31-1.52,1.98-1.63,2.24-3.32,4.43-4.96,6.65-.36,.49-.69,1.02-.94,1.57-.2,.43,0,.75,.38,.92Zm36.12,9.92c.27-.12,.63-.17,.79-.38,.49-.6,.47-1.53,.05-2.21-.51-.8-1.31-1.21-2.13-1.02-.23,.05-.5,.25-.6,.45-.77,1.65,.68,3.17,1.89,3.15ZM75.66,14.69c.15,.52,.28,1.04,.45,1.55,.36,1.07,.76,2.12,1.12,3.19,.37,1.11,.7,2.23,1.05,3.35,.26,.85,.51,1.69,.75,2.54,.24,.85,.47,1.7,1.04,2.4-.64-2.38-1.31-4.76-2.01-7.12-.31-1.05-.69-2.08-1.07-3.1-.37-.96-.52-2.03-1.32-2.81ZM5.06,58.87s0,.09,0,.14c7.35,1.29,14.69,2.58,22.04,3.88,0-.04,.01-.07,.02-.11-7.35-1.3-14.7-2.6-22.05-3.91ZM79.35,29.13c.4,1.07,1.06,2.03,2.01,2.79,.05-.14,.05-.26,.01-.36-.35-.85-.69-1.69-1.06-2.53-.04-.1-.25-.22-.35-.19-.66,.15-1.32,.33-1.98,.51l.03,.13c.43-.11,.87-.22,1.33-.34ZM40.22,61.89c-1.28,.09-1.53-.08-2.22-1.51-.28,.54,.06,1.29,.48,1.57,.58,.39,1.12,.38,1.73-.06Zm-21.04-.98s-.02,.07-.03,.1c3.15,.62,6.3,1.23,9.45,1.85,0-.04,.01-.08,.02-.11-3.15-.61-6.29-1.23-9.44-1.84ZM72.45,26.79s-.08-.06-.11-.09l-3.7,4.08s.08,.07,.12,.11c1.23-1.37,2.46-2.73,3.69-4.1Zm10.76,9.9s.08-.03,.13-.05l-1.51-4.09s-.09,.03-.14,.05c.51,1.36,1.01,2.72,1.52,4.08Zm-9.37-12.68c.34-1.39-.03-2.71-.41-4.03,.26,1.33,.54,2.65,.41,4.03ZM35.65,59.45c.16,.97,.33,2.04,.48,2.97,.29-.62-.02-1.88-.48-2.97ZM.7,61.29c-.06,0-.12,0-.18,0-.08,.13-.24,.29-.21,.4,.04,.17,.22,.3,.33,.45,.12-.11,.35-.23,.34-.31-.03-.19-.18-.36-.28-.54Zm30.89-15.26s.05-.02,.08-.02c-.33-1.13-.66-2.25-.99-3.38-.03,0-.06,.02-.09,.03,.34,1.13,.67,2.25,1.01,3.38ZM75.46,14.11c-.02-.07-.04-.13-.05-.2-.65,.19-1.3,.37-1.96,.56,.01,.04,.02,.08,.03,.12,.66-.16,1.32-.32,1.98-.48ZM35.24,63.84c-.67,.06-1.31,.12-1.95,.19,.65-.02,1.34,.36,1.95-.19Zm-28.11-5.68h-1.05c.63,.34,1.02,.32,1.05,0Zm27.7-8.5s.06-.02,.09-.03c-.19-.63-.37-1.26-.56-1.89l-.09,.03c.19,.63,.37,1.26,.56,1.89Zm49.23-10.84s.07-.03,.11-.04c-.19-.49-.38-.97-.57-1.46-.04,.02-.08,.03-.12,.05,.19,.48,.39,.97,.58,1.45ZM31.13,63.15v.06c.64,.12,1.29,.24,1.94,.36,0-.03,.01-.07,.02-.1-.65-.11-1.3-.21-1.96-.32Z"/>
  <path class="cls-1" d="M27.41,23.39c-.67,.52-1.3,1-1.93,1.49-.7-2.31-1.41-4.65-2.11-6.99-1.24-4.11-2.47-8.23-3.71-12.34-.23-.75-.74-1.26-1.42-1.61-.81-.42-1.63-.82-2.43-1.27-.17-.1-.26-.36-.39-.54,.19-.09,.39-.17,.58-.26,.04-.02,.08-.03,.09-.04-.35-.13-.71-.26-1.1-.4v-.35c.53-.09,1.05-.17,1.56-.26v-.13c-.22-.02-.43-.05-.79-.09,.34-.24,.59-.41,.88-.61,.22,.28,.43,.55,.68,.88-.26,.03-.43,.05-.6,.07,0,.05,0,.1,.01,.15l3.16-.2c0-.07,0-.13,0-.2-.21-.03-.41-.06-.64-.09,.09-.37,.42-.42,.69-.42,.24,0,.46,.12,.52,.45,.04,.21,.29,.38,.43,.57,.08,.11,.12,.24,.19,.38-.37,.11-.68,.21-1,.28-.02,0-.08-.17-.14-.3-.1,.24-.11,.37,.15,.51,.63,.34,1.09,.86,1.31,1.55,.66,2.05,1.31,4.09,1.94,6.15,1.38,4.56,2.73,9.13,4.07,13.61ZM21.97,6.29c-.1-.36-.17-.66-.26-.95-.14-.48-.29-.96-.45-1.44-.24-.7-.57-1.34-1.34-1.69,.41,.8,.8,1.56,1.18,2.31,.07,.14,.12,.28,.15,.43,.11,.49,.08,1.04,.71,1.33Zm.58,1.68s-.1,.01-.15,.02c-.09,.3-.23,.61,.25,.85-.04-.33-.07-.6-.1-.87Z"/>
  <path class="cls-1" d="M82.1,9.09c0-.13-.02-.26-.03-.47,.36,.14,.65,.25,.95,.37-.32,.37-.63,.24-.93,.09,0,0,.01,.01,.01,.01Z"/>
  <path class="cls-1" d="M86.5,44.22c.28,.67,.56,1.34,.84,2.01l-.1,.04c-.28-.67-.56-1.33-.84-2,.03-.02,.07-.03,.1-.05Z"/>
  <path class="cls-1" d="M63.37,37.26c-.13,.09-.27,.18-.41,.27-.32-.26-.29-.5-.03-.78,.49-.53,.96-1.08,1.46-1.62,.07-.08,.22-.09,.34-.13-.16,.28-.32,.56-.49,.84-.54,.27-.77,.72-.78,1.31-.03,.04-.06,.07-.09,.11Z"/>
</svg>
