<svg width="39" height="39" viewBox="0 0 39 39" fill="none" xmlns="http://www.w3.org/2000/svg">
<g clip-path="url(#clip0_6_9)">
<path d="M35.2137 29.5263L26.6013 20.9138H24.9925L20.865 25.0413V26.65L29.4775 35.2625C30.1112 35.8963 31.135 35.8963 31.7687 35.2625L35.2137 31.8175C35.8475 31.2 35.8475 30.16 35.2137 29.5263ZM30.615 31.8338L23.725 24.9438L24.8788 23.79L31.7687 30.68L30.615 31.8338Z" fill="black"/>
<path d="M28.1775 16.5587L30.4687 14.2675L33.9137 17.7125C35.815 15.8112 35.815 12.7237 33.9137 10.8225L28.1612 5.07L25.87 7.36125V2.77875L24.7325 1.625L18.98 7.3775L20.1337 8.53125H24.7325L22.4412 10.8225L24.1637 12.545L19.4675 17.2412L12.7562 10.53V8.2225L7.84875 3.315L3.25 7.91375L8.17375 12.8375H10.465L17.1762 19.5487L15.795 20.93H12.35L3.7375 29.5425C3.10375 30.1762 3.10375 31.2 3.7375 31.8337L7.1825 35.2787C7.81625 35.9125 8.84 35.9125 9.47375 35.2787L18.0862 26.6662V23.2212L26.455 14.8525L28.1775 16.5587ZM15.21 24.9275L8.32 31.8175L7.16625 30.6637L14.0562 23.7737L15.21 24.9275Z" fill="black"/>
</g>
<defs>
<clipPath id="clip0_6_9">
<rect width="39" height="39" fill="white"/>
</clipPath>
</defs>
</svg>
