<svg width="28" height="28" viewBox="0 0 28 28" fill="none" xmlns="http://www.w3.org/2000/svg">
<path d="M3.5 11.5C3.5 7.72876 3.5 5.84315 4.67157 4.67157C5.84315 3.5 7.72876 3.5 11.5 3.5H16.5C20.2712 3.5 22.1569 3.5 23.3284 4.67157C24.5 5.84315 24.5 7.72876 24.5 11.5V16.5C24.5 20.2712 24.5 22.1569 23.3284 23.3284C22.1569 24.5 20.2712 24.5 16.5 24.5H11.5C7.72876 24.5 5.84315 24.5 4.67157 23.3284C3.5 22.1569 3.5 20.2712 3.5 16.5V11.5Z" stroke="black" stroke-width="2"/>
<circle cx="19.25" cy="8.75" r="1.75" fill="black" stroke="black" stroke-linecap="round"/>
<circle cx="14" cy="14" r="3.66667" stroke="black" stroke-width="2"/>
</svg>
