<?xml version="1.0" encoding="UTF-8"?>
<svg id="Calque_1" data-name="Calque 1" xmlns="http://www.w3.org/2000/svg" viewBox="0 0 208.95 44.77">
  <defs>
    <style>
      .cls-1 {
        fill: #005f73;
      }

      .cls-2 {
        fill: #bb3e03;
      }

      .cls-3 {
        fill: #0b9396;
      }
    </style>
  </defs>
  <g>
    <path class="cls-1" d="M28.36,1.66c6.05-.07,11.19,5.03,11.1,11.1,.09,6.05-5.05,11.19-11.1,11.1H11.52v7.17H.07V1.66H28.36Zm-2.86,13.59c.68,0,1.27-.24,1.75-.72s.74-1.09,.74-1.77-.24-1.29-.74-1.77c-.48-.5-1.07-.74-1.75-.74H11.52v5h13.98Z"/>
    <path class="cls-1" d="M50.18,1.66h13.61l15.75,29.37h-12.89l-2.32-5.03h-14.71l-2.32,5.03h-12.89L50.18,1.66Zm2.77,17.17h8.06l-4.02-8.67-4.04,8.67Z"/>
    <path class="cls-1" d="M91.86,1.61V21.67h22.92v9.31h-34.37V1.61h11.45Z"/>
    <path class="cls-1" d="M118.64,1.61h14.33l11.45,14.68,11.47-14.68h14.31V30.98h-11.45V15.31l-11.47,15.67h-5.73l-11.47-15.67v15.67h-11.45V1.61Z"/>
  </g>
  <g>
    <path class="cls-2" d="M10.01,41.55c-.18,2.48-2.35,3.22-5,3.22C2.26,44.76-.01,43.97,0,41.19v-.54c-.01-2.78,2.26-3.57,5.01-3.58,2.64,0,4.82,.75,5,3.22h-2.93c-.27-.72-1.08-.89-2.06-.89-1.17,.02-2.16,.22-2.15,1.43v.18c-.02,1.2,.98,1.42,2.15,1.43,.98,0,1.8-.17,2.06-.9h2.93Z"/>
    <path class="cls-2" d="M37.05,39.89l2.15-2.63h3.4l-4.12,4.83v2.51h-2.86v-2.51l-4.12-4.83h3.4l2.15,2.63Z"/>
    <path class="cls-2" d="M74.09,41.55c-.18,2.48-2.35,3.22-5,3.22-2.75,0-5.03-.8-5.01-3.58v-.54c-.01-2.78,2.26-3.57,5.01-3.58,2.64,0,4.82,.75,5,3.22h-2.93c-.27-.72-1.08-.89-2.06-.89-1.17,.02-2.16,.22-2.15,1.43v.18c-.02,1.2,.98,1.42,2.15,1.43,.98,0,1.8-.17,2.06-.9h2.93Z"/>
    <path class="cls-2" d="M100.17,37.25v5.01h5.73v2.33h-8.59v-7.34h2.86Z"/>
    <path class="cls-2" d="M129.23,37.26h8.59v1.88h-5.73v.94h5.73v1.7h-5.73v.94h5.73v1.88h-8.59v-7.34Z"/>
    <path class="cls-2" d="M166,40.09c2.05,.1,4.93,.25,4.92,2.09,0,2.1-2.4,2.59-4.98,2.59-2.57,0-4.71-.32-4.98-2.59h3c.33,.57,1.09,.72,1.98,.72s1.98-.15,1.98-.72c0-.32-.89-.37-2.04-.43-2.05-.1-4.93-.25-4.92-2.08,0-2.1,2.4-2.6,4.98-2.6,2.57,.02,4.71,.31,4.98,2.6h-3c-.33-.58-1.09-.72-1.98-.72s-1.98,.13-1.98,.72c0,.32,.89,.37,2.04,.42Z"/>
  </g>
  <g>
    <path class="cls-3" d="M185.74,0c-4.95-.06-8.16,4.07-7.89,9.6,2.3-5.58,9.29-6.22,12.26-3.17-6.99-.83-16.69,4.06-9.82,18.05,1.37-10.68,9.65-13.99,13.25-14.49,5.02,.36,11.63,5.86,11.96,14.4,10.64-13.82-6.39-18.89-10.5-17.32,.94-2.23,6.73-4.09,12.77,.99-2.2-14.3-14.36-5.1-14.36-5.1C190.61,.91,187.99,.03,185.74,0Z"/>
    <polygon class="cls-3" points="194.97 13.3 193.39 12.24 191.81 13.3 188.53 31 193.39 31 198.25 31 194.97 13.3"/>
  </g>
</svg>
