<svg width="267" height="291" viewBox="0 0 267 291" fill="none" xmlns="http://www.w3.org/2000/svg">
<g clip-path="url(#clip0_211_139)">
<path d="M228.725 113.71C244.111 113.71 256.564 126.163 256.564 141.577C256.564 156.909 244.125 169.375 228.725 169.375C213.379 169.375 200.913 156.909 200.913 141.577C200.913 126.163 213.365 113.71 228.725 113.71ZM201.56 268.322L201.794 267.068C202.455 261.888 202.827 256.792 203.102 251.654C203.529 241.474 203.185 231.307 202.111 221.321C199.989 201.32 194.782 181.744 186.312 163.865C178.928 148.107 154.422 108.833 139.475 90.7611C144.159 88.226 153.429 83.6537 156.736 82.3312C164.368 79.0658 172.604 77.0271 181.036 76.5322C189.535 76.0091 198.268 77.0285 206.781 79.5903C215.266 82.2071 223.518 86.3396 231.217 91.5055C224.95 84.6871 217.746 78.5427 209.426 73.6122C201.147 68.7776 191.779 65.195 181.876 63.4594C171.999 61.6956 161.653 61.7788 151.584 63.4044C147.59 64.0248 143.704 64.9892 139.848 66.0762L141.901 59.6569C144.808 51.86 148.843 44.4636 154.257 37.9328C159.698 31.3485 166.365 25.6595 174.079 21.238C181.793 16.7333 190.43 13.6202 199.425 11.4715C190.196 11.4433 180.773 12.4768 171.544 15.2318C162.329 17.9318 153.36 22.3392 145.372 28.4286C137.272 34.3925 130.315 42.0244 124.571 50.4966C121.72 54.7673 119.226 59.272 116.968 63.9825C115.852 66.3385 114.819 68.7762 113.909 71.2013L112.766 74.4243L110.3 74.0662C107.683 73.7363 105.065 73.5149 102.462 73.3768C97.2823 73.1836 92.1304 73.3359 87.0618 73.8858C76.8681 74.9742 66.8675 77.6319 57.7623 81.9166C48.712 86.2141 40.6261 92.1653 33.9304 99.0669C27.222 105.954 21.877 113.792 17.6205 121.989C23.6409 115.019 30.5283 108.807 38.0629 104.082C45.5707 99.3432 53.7666 95.982 62.0865 94.3296C70.3796 92.5531 78.8504 92.4149 87.0745 93.4893C89.1273 93.7515 93.4938 94.5495 97.8054 95.4039L96.7451 96.6165C90.2989 104.578 85.133 113.519 81.7436 122.982C78.3273 132.419 76.799 142.309 76.9498 151.937C77.0457 161.594 78.8504 170.906 81.6604 179.735C80.9709 170.492 81.4263 161.305 83.4242 152.613C85.3671 143.921 88.8383 135.849 93.4797 128.727C98.1776 121.62 104.003 115.504 110.575 110.503C113.013 108.657 119.487 104.193 124.226 101.149C131.168 108.726 137.492 116.688 142.794 125.118C152.12 139.912 158.677 155.933 162.052 172.27C165.441 188.635 165.744 205.22 163.609 221.365C162.549 229.424 157.631 254.949 155.413 262.607L153.539 268.325H-1.05809L-1.05809 278.657H289.942V268.325H201.56V268.322Z" fill="#D6D0C9"/>
</g>
<defs>
<clipPath id="clip0_211_139">
<rect width="291" height="291" fill="white" transform="translate(-24)"/>
</clipPath>
</defs>
</svg>
